<?xml version="1.0" encoding="utf-8"?>
<!-- Generator: Adobe Illustrator 24.0.0, SVG Export Plug-In . SVG Version: 6.00 Build 0)  -->
<svg version="1.1" id="Layer_1" xmlns="http://www.w3.org/2000/svg" xmlns:xlink="http://www.w3.org/1999/xlink" x="0px" y="0px"
	 viewBox="0 0 390 389" style="enable-background:new 0 0 390 389;" xml:space="preserve">
<style type="text/css">
	.st0{fill:#29ABE2;}
</style>
<g>
	<path class="st0" d="M367.57,22.16h-345v345h345V22.16z M361.57,83.91l-55.76-55.76h55.76V83.91z M361.57,109.69l-81.54-81.54
		h17.29l64.24,64.24V109.69z M361.57,135.47l-23.68-23.68l5.24-9.07c0.39-0.68,0.68-1.39,0.87-2.12l17.58,17.58V135.47z
		 M361.57,161.25l-33.12-33.12l6.33-10.96l26.79,26.79V161.25z M361.57,223.58l-25.77,25.77l-8.65-8.65l34.42-34.42V223.58z
		 M361.57,249.36L346,264.93c0.55-2.72-0.24-5.63-2.29-7.67l-3.66-3.66l21.53-21.53V249.36z M361.57,275.13l-86.02,86.02h-17.29
		l34.04-34.04c0.6,0.11,1.22,0.15,1.84,0.09c1.93-0.19,3.66-1.23,4.73-2.85l1.22-1.84c1.06,0.47,2.21,0.72,3.4,0.72
		c2.84,0,5.47-1.41,7.04-3.78l20.92-31.5l30.12-30.12V275.13z M361.57,300.91l-60.24,60.24h-17.29l77.54-77.54V300.91z
		 M361.57,361.16h-51.76l51.76-51.76V361.16z M28.57,361.16V301.4l59.76,59.76H28.57z M28.57,292.91v-17.29l85.54,85.54H96.81
		L28.57,292.91z M28.57,249.84l21.57,21.57l-4.62,7.05c-0.93,1.43-1.21,3.12-0.92,4.7l-16.03-16.03V249.84z M28.57,224.06
		l31.77,31.77l-6.85,10.45l-24.93-24.93V224.06z M28.57,151.95l23.17-23.17l8.75,8.54l-31.92,31.92V151.95z M28.57,126.18
		l39.31-39.31L48.26,118.3c-1.13,1.81-1.24,4.03-0.45,5.92l-19.25,19.25V126.18z M28.57,100.4l72.24-72.24h17.29l-89.54,89.54V100.4
		z M28.57,28.16h63.76L28.57,91.91V28.16z M361.57,197.8l-38.66,38.66l-8.65-8.65l31.16-31.16l-36.63-36.63
		c1.21-0.73,2.25-1.75,2.98-3.01l4.14-7.16l45.66,45.66V197.8z M289.75,218.07c-2.39,0.16-4.76,0.6-7.05,1.32l-16.83,5.27l28-28
		l-38.67-38.67l-0.06-17.36l56.03,56.03L289.75,218.07z M255.38,209.36l12.71-12.71l-12.8-12.8l-0.06-17.36l30.16,30.16
		l-29.94,29.94L255.38,209.36z M255.32,192.37l4.29,4.29l-4.25,4.25L255.32,192.37z M309.76,223.83c-3.59-2.63-7.68-4.42-12.02-5.27
		l21.91-21.91l-64.54-64.54l-0.01-2.89c1.99,1.01,3.83,2.34,5.44,3.99l29.31,30.09c1.42,1.46,3.39,2.15,5.42,1.9
		c2.02-0.25,3.77-1.41,4.79-3.18l0.82-1.43l36.07,36.07L309.76,223.83z M311.52,145.46l-4.94,8.56c-0.46,0.8-1.29,1.23-2.13,1.23
		c-0.16,0-0.32-0.02-0.47-0.05c-0.01,0-0.02-0.01-0.03-0.01c-0.46-0.1-0.89-0.32-1.25-0.69l-1.84-1.89l-2.9-2.98l-16.53-16.97
		l-8.03-8.24c-0.7-0.72-1.45-1.38-2.22-2c-3.98-3.19-8.82-5.04-13.83-5.35c-0.5-0.03-1-0.05-1.49-0.05c-2.27,0-4.56,0.32-6.8,0.96
		l0,1.22l0.01,4.03l0.01,2.86l0,1.18l0.03,7.34l0.06,17.36l0.03,8.52l0.06,17.36l0.03,8.52l0.07,20.54l0.03,8.45l0.06,17.23
		l0.01,2.18l0,1.32l7.23-2.27l24.96-7.82l0.23-0.07l2.6-0.81c2.41-0.75,4.87-1.12,7.32-1.12c0.16,0,0.33,0.01,0.49,0.01
		c4.67,0.09,9.24,1.52,13.15,4.14c1.31,0.88,2.54,1.88,3.68,3.02l0.89,0.89l8.65,8.65l4.24,4.24l8.65,8.65l4.24,4.24l3.66,3.66
		c0.82,0.82,0.95,2.12,0.31,3.09l-12.99,19.56l-16.78,25.26l-4.47,6.73c-0.46,0.69-1.18,1.05-1.93,1.08c-0.04,0-0.07,0.01-0.11,0.01
		c-0.36,0-0.72-0.09-1.06-0.25c-0.24-0.12-0.47-0.26-0.67-0.46l-1.5-1.5l-2.18-2.18l-0.71-0.71l-7.94-7.94l-4.24-4.24l-8.65-8.65
		l-2.3-2.3c-0.65-0.65-1.34-1.26-2.05-1.83c-3.53-2.82-7.74-4.57-12.15-5.14c-1.03-0.13-2.06-0.21-3.11-0.21
		c-1.8,0-3.61,0.2-5.4,0.6l-0.48,0.11l-5.97,1.35l-16.38,3.7l-6.78,1.53c-0.19,0.04-0.38,0.06-0.56,0.06
		c-0.26,0-0.51-0.05-0.74-0.13c-0.44-0.15-0.82-0.42-1.11-0.76c-0.59-0.71-0.81-1.74-0.3-2.7c4.23-7.99,12.39-23.4,12.69-23.96
		v-3.02v-8.48v-17.29v-8.48v-17.29v-8.48v-3.84v-8.48v-17.29v-8.48v-17.29v-8.48V123l-6,1.71l-3.1,0.88l-6.6,1.88l-1.57,0.45v3.15
		v4.16v7.96v8.49v17.29v8.48v38.38v8.48v17.29v8.48v11.72c0,0.4-0.1,0.8-0.29,1.16l-5.43,10.14l-9.77,18.26l-6.08,11.36l-2.96,5.53
		l-5.14,9.61c-0.33,0.62-0.83,0.99-1.38,1.16c-0.25,0.08-0.5,0.13-0.75,0.13c-0.25,0-0.51-0.05-0.75-0.12
		c-0.95-0.29-1.73-1.11-1.73-2.33v-0.91v-2v-8.48v-5.93c-1.26,0.32-3.34,0.86-6,1.54c-2.04,0.52-4.42,1.14-7.05,1.81
		c-2.11,0.54-4.37,1.12-6.75,1.74c-4.32,1.11-9.01,2.32-13.76,3.54c-2.25,0.58-4.51,1.16-6.75,1.74c-4.76,1.23-9.45,2.43-13.76,3.54
		c-2.39,0.61-4.65,1.2-6.75,1.74c-0.44,0.11-0.87,0.22-1.3,0.33c-1.88,0.48-3.78,0.73-5.68,0.76c-0.14,0-0.28,0.01-0.42,0.01
		c-4.17,0-8.28-1.09-11.93-3.13c-1.49-0.83-2.91-1.81-4.22-2.96l-36.71-32.22c-0.92-0.81-1.1-2.16-0.43-3.19l1.19-1.81l6.85-10.45
		l3.36-5.13l6.85-10.45l3.36-5.13l5.72-8.73l1.13-1.72l1.09-1.66l2.21-3.38l0.06-0.09l2.33-3.56c0.47-0.72,1.26-1.11,2.05-1.11
		c0.57,0,1.15,0.2,1.61,0.61l33.44,29.35c2.31,2.02,4.94,3.56,7.74,4.59c2.69,0.98,5.54,1.5,8.41,1.5c0.22,0,0.44-0.01,0.67-0.02
		c0.28-0.01,0.57-0.01,0.85-0.03c1.44-0.09,2.88-0.31,4.31-0.66c3.07-0.75,6.46-1.59,9.87-2.45c2.27-0.57,4.55-1.16,6.76-1.73
		c0.55-0.14,1.09-0.28,1.63-0.43c1.38-0.36,2.72-0.72,4-1.07c2.23-0.6,4.27-1.18,6-1.69v-2.49v-8.48v-17.29v-8.48v-32.08v-8.49
		v-16.15c0-0.44,0.12-0.86,0.34-1.24l0.34-0.58l12.03-20.52l10.84-18.48l3.14-5.35l6.39-10.9l3.14-5.35l5.66-9.65l0.73-1.25
		l2.1-3.58l1.04-1.77l0.85-1.44c0.33-0.57,0.88-0.98,1.52-1.14l9.88-2.47l6.79-1.7l13.83-3.46l6.79-1.7l12.24-3.06l1.6-0.4
		l3.58-0.89c1.13-0.28,2.28-0.47,3.42-0.59c0.84-0.09,1.68-0.14,2.52-0.14c6.16,0,12.18,2.33,16.77,6.65l31.62,29.73
		c0.83,0.78,1.01,2.03,0.44,3.01l-4.43,7.68l-3.11,5.38l-6.33,10.96l-3.11,5.38l-6.33,10.96L311.52,145.46z M163.8,247.7
		l-51.04-51.04l48.01-48.01l6.6-1.59c2.2-0.53,4.06-1.88,5.23-3.81l10.05-16.48l8.05-8.05l-23.46,40.01
		c-0.25,0.42-0.43,0.86-0.57,1.32l-36.61,36.61l36.3,36.3v14.08C165.51,247.26,164.65,247.48,163.8,247.7z M166.35,186.13
		l-10.52,10.52l10.52,10.52v17.29l-27.82-27.82l27.82-27.82V186.13z M166.35,198.69l-2.04-2.04l2.04-2.04V198.69z M200.02,102.81
		l-0.95-0.95l-3.15,3.15l8.94-14.66l1.56,1.56L200.02,102.81z M147.57,153.36l-43.29,43.29l52.75,52.75
		c-2.21,0.55-4.37,1.08-6.36,1.57c-1.44,0.35-2.92,0.53-4.4,0.53c-1.77,0-3.51-0.26-5.18-0.75l-54.1-54.1l37.79-37.79L147.57,153.36
		z M213.49,79.86l-3.93,6.71l-3.49-3.49c-0.18-0.61-0.41-1.21-0.73-1.78c-1.11-1.97-2.94-3.39-5.04-3.99l-1.22-1.22l-0.9,0.9
		c-0.06,0-0.12-0.01-0.18-0.01c-0.67,0-1.35,0.08-2.01,0.24l-20.22,4.88l23.3-23.3l18.15,18.15
		C215.66,77.4,214.31,78.45,213.49,79.86z M143.5,95.35c0.27,0,0.55-0.01,0.82-0.02c1.64-0.06,3.29-0.27,4.92-0.66l7.2-1.74
		l11.19-2.7l21.37-5.16l1.43-0.34l6.96-1.68c0.2-0.05,0.4-0.07,0.6-0.07c1.52,0,2.64,1.43,2.38,2.89c-0.05,0.28-0.14,0.57-0.31,0.84
		l-22.15,36.32l-10.42,17.09c-0.34,0.56-0.88,0.95-1.52,1.11l-0.95,0.23l-5.49,1.33l-1.8,0.43l-22.79,5.5l-11.19,2.7l-8.43,2.03
		c-1.63,0.39-3.28,0.6-4.92,0.66c-0.27,0.01-0.55,0.02-0.82,0.02c-1.78,0-3.54-0.2-5.26-0.58c-2.16-0.47-4.25-1.24-6.21-2.28
		c-2.04-1.08-3.94-2.45-5.63-4.11l-3.82-3.73l-4.29-4.19l-8.75-8.54l-4.29-4.19l-8.75-8.54l-0.52-0.51
		c-0.82-0.8-0.98-2.07-0.37-3.05l6.7-10.74l19.61-31.43l2.17-3.47l2.17-3.47l2.33-3.74c0.47-0.76,1.27-1.15,2.08-1.15
		c0.61,0,1.23,0.23,1.71,0.7l6.33,6.17l4.29,4.19l8.75,8.54l4.29,4.19l4.29,4.19c1.53,1.49,3.22,2.75,5.03,3.77
		c1.91,1.08,3.94,1.9,6.05,2.43C139.44,95.09,141.46,95.35,143.5,95.35z M99.5,164.14c2.24,0,4.51-0.27,6.75-0.81l7.34-1.77
		l-35.09,35.09l19.26,19.26c-0.86-0.29-1.77-0.45-2.7-0.45c-2.86,0-5.5,1.43-7.07,3.82l-1.65,2.51L61.2,196.66l33.01-33.01
		C95.95,163.97,97.71,164.14,99.5,164.14z M204.94,293.26c0.1,1.2,0.54,2.38,1.32,3.4c0.75,0.97,1.72,1.68,2.8,2.1l-9.99,9.99
		l-1.57-1.57L204.94,293.26z M190.25,320.71l4.29-8.01l4.53,4.53l19.5-19.5l22.35-5.05l-41.85,41.85l-11.11-11.11
		C188.88,322.69,189.67,321.78,190.25,320.71z M227,68.92c-2.19,0.55-4.1,1.98-5.24,3.92l-0.06,0.09L199.07,50.3l-34.49,34.49
		l-16.74,4.04c-1.42,0.34-2.88,0.52-4.34,0.52c-0.25,0-0.49-0.03-0.74-0.04l56.3-56.3l34.32,34.32L227,68.92z M79.67,156.03
		c2.41,2.35,5.16,4.22,8.11,5.56l-35.06,35.06l28.26,28.26c-0.51,0.41-0.95,0.9-1.32,1.46l-5.75,8.77l-38.49-38.49l42.41-42.41
		L79.67,156.03z M166.35,310.56v12.16c0,3.01,1.96,5.52,4.88,6.26c0.54,0.14,1.09,0.2,1.62,0.2c2.33,0,4.48-1.26,5.63-3.42l0.75-1.4
		c0.57,0.27,1.17,0.48,1.8,0.61l18.03,18.03l50.95-50.95c4.25,0.64,8.24,2.62,11.4,5.78l0.06,0.06l-62.41,62.41l-46.26-46.26
		L166.35,310.56z M289.09,54.34c-2.49,0-4.98,0.31-7.39,0.91l-0.28,0.07l-27.16-27.16h17.29l28.05,28.05
		C296.27,54.98,292.72,54.34,289.09,54.34z M274.63,57.01l-13.83,3.46l-32.32-32.32h17.29L274.63,57.01z M254.01,62.17l-13.83,3.46
		L202.7,28.16h17.29L254.01,62.17z M135.89,87.7c-1.94-0.88-3.74-2.08-5.31-3.61l-4.24-4.14l51.8-51.8h17.29L135.89,87.7z
		 M122.05,75.76l-8.75-8.54l39.07-39.07h17.29L122.05,75.76z M109,63.03l-6.38-6.22c-0.83-0.81-1.8-1.43-2.86-1.83l26.82-26.82
		h17.29L109,63.03z M64.79,141.51l8.75,8.54l-44.97,44.97v-17.29L64.79,141.51z M28.57,198.29l41.98,41.98l-6.85,10.45l-35.13-35.13
		V198.29z M59.91,298.48l23.45,20.58c5.92,5.2,13.66,7.66,21.38,6.95l35.14,35.14h-17.29L59.91,298.48z M111.8,324.59l13.76-3.54
		l40.11,40.11h-17.29L111.8,324.59z M132.3,319.31l13.76-3.54l45.38,45.38h-17.29L132.3,319.31z M265.72,302.13l8.65,8.65
		l-50.38,50.38H206.7L265.72,302.13z M278.61,315.02l8.65,8.65l-37.49,37.49h-17.29L278.61,315.02z M361.57,187.02l-42.55-42.55
		l6.33-10.96l36.22,36.22V187.02z"/>
	<path class="st0" d="M0.57,0.16v389h389v-389H0.57z M378.57,378.16h-367v-367h367V378.16z"/>
</g>
</svg>
