<?xml version="1.0" encoding="utf-8"?>
<!-- Generator: Adobe Illustrator 24.0.0, SVG Export Plug-In . SVG Version: 6.00 Build 0)  -->
<svg version="1.1" id="Layer_1" xmlns="http://www.w3.org/2000/svg" xmlns:xlink="http://www.w3.org/1999/xlink" x="0px" y="0px"
	 viewBox="0 0 282 260" style="enable-background:new 0 0 282 260;" xml:space="preserve">
<style type="text/css">
	.st0{fill:#FFFFFF;}
</style>
<g>
	<path class="st0" d="M37.77,250.13c6.08,5.34,14.41,7.33,22.25,5.31c19.25-4.95,54.66-14.06,62.1-15.97v17.32
		c0,2.55,3.41,3.4,4.61,1.16l29.39-54.89c0.19-0.36,0.29-0.75,0.29-1.16V68l17.27-4.93v138.63c-0.3,0.57-8.46,15.97-12.69,23.96
		c-0.98,1.85,0.67,3.99,2.71,3.53l29.61-6.69c8.2-1.85,16.77,0.63,22.72,6.57l27.51,27.51c1.09,1.09,2.92,0.91,3.77-0.38
		l34.24-51.55c0.65-0.97,0.52-2.26-0.31-3.09l-30.34-30.34c-6.45-6.45-15.94-8.78-24.64-6.05l-35.01,10.97l-0.42-118.1
		c8.68-2.51,18.04-0.04,24.34,6.44l29.31,30.08c1.13,1.16,3.07,0.92,3.88-0.48l31.35-54.3c0.57-0.98,0.38-2.23-0.44-3.01
		L247.63,7.05c-6.07-5.71-14.63-7.94-22.71-5.92l-54.7,13.67c-0.64,0.16-1.19,0.57-1.52,1.14l-46.25,78.86
		c-0.22,0.38-0.34,0.8-0.34,1.24v93.46c-6.98,2.07-19.06,5.11-28.26,7.36c-7.77,1.9-15.97-0.1-21.98-5.38l-33.44-29.35
		c-1.12-0.98-2.85-0.75-3.67,0.5L0.63,214.72c-0.67,1.02-0.48,2.38,0.43,3.19L37.77,250.13z"/>
	<path class="st0" d="M34.23,87.24c6.03,5.88,14.66,8.25,22.85,6.28l50.65-12.23c0.63-0.15,1.18-0.55,1.52-1.11l32.58-53.41
		c1.14-1.86-0.55-4.17-2.67-3.66L91.01,34.74c-8.19,1.98-16.82-0.39-22.85-6.28L40.2,1.17c-1.12-1.09-2.96-0.87-3.79,0.46
		L3.42,54.49c-0.61,0.98-0.46,2.25,0.37,3.05L34.23,87.24z"/>
</g>
</svg>
